<svg width="74" height="74" viewBox="0 0 74 74" fill="none" xmlns="http://www.w3.org/2000/svg">
<circle cx="37" cy="37" r="37" fill="black"/>
<path d="M67.0625 26.7961L47.2039 6.93751C46.3332 6.07956 45.1599 5.59863 43.9375 5.59863C42.7151 5.59863 41.5418 6.07956 40.6711 6.93751L33.4156 14.193L16.6211 20.4945C15.865 20.7784 15.197 21.2565 14.6845 21.8807C14.1719 22.5049 13.8329 23.2531 13.7016 24.05L7.68906 60.0672C7.64537 60.3107 7.68094 60.5618 7.79054 60.7836C7.90015 61.0054 8.07801 61.1862 8.29799 61.2995C8.51797 61.4127 8.76847 61.4524 9.01267 61.4127C9.25687 61.373 9.4819 61.256 9.65469 61.0789L25.5531 45.1516C24.7161 43.7333 24.2767 42.1156 24.2813 40.4688C24.2813 38.6393 24.8238 36.8509 25.8402 35.3297C26.8566 33.8086 28.3012 32.623 29.9914 31.9229C31.6816 31.2228 33.5415 31.0396 35.3358 31.3965C37.1302 31.7534 38.7784 32.6344 40.072 33.928C41.3656 35.2217 42.2466 36.8698 42.6035 38.6642C42.9604 40.4585 42.7772 42.3184 42.0771 44.0086C41.377 45.6988 40.1914 47.1434 38.6703 48.1598C37.1491 49.1763 35.3607 49.7188 33.5313 49.7188C31.8844 49.7233 30.2667 49.2839 28.8484 48.4469L12.9211 64.3453C12.744 64.5181 12.627 64.7431 12.5873 64.9873C12.5476 65.2315 12.5873 65.482 12.7005 65.702C12.8138 65.922 12.9946 66.0999 13.2164 66.2095C13.4382 66.3191 13.6893 66.3546 13.9328 66.3109L49.95 60.3274C50.7469 60.1851 51.4934 59.8387 52.1165 59.322C52.7397 58.8052 53.2182 58.1358 53.5055 57.3789L59.807 40.5844L67.0625 33.3289C67.4942 32.9015 67.837 32.3928 68.0709 31.8321C68.3048 31.2715 68.4252 30.67 68.4252 30.0625C68.4252 29.455 68.3048 28.8535 68.0709 28.2929C67.837 27.7322 67.4942 27.2235 67.0625 26.7961ZM57.8125 36.0461L37.9539 16.1875L43.9375 10.2039L63.7961 30.0625L57.8125 36.0461ZM33.5313 45.0938C32.6165 45.0938 31.7223 44.8225 30.9617 44.3143C30.2012 43.8061 29.6084 43.0838 29.2583 42.2387C28.9083 41.3936 28.8167 40.4636 28.9951 39.5665C29.1736 38.6693 29.6141 37.8452 30.2609 37.1984C30.9077 36.5516 31.7318 36.1111 32.629 35.9326C33.5261 35.7542 34.4561 35.8458 35.3012 36.1958C36.1463 36.5459 36.8686 37.1387 37.3768 37.8992C37.885 38.6598 38.1563 39.554 38.1563 40.4688C38.1563 41.6954 37.669 42.8718 36.8016 43.7391C35.9343 44.6065 34.7579 45.0938 33.5313 45.0938Z" fill="white"/>
</svg>
